<svg xmlns="http://www.w3.org/2000/svg" width="20" height="20" viewBox="0 0 20 20" fill="none">
<path d="M8.90582 3.99658L11.041 2.1014C11.945 1.37005 13.1317 0.976004 14.3545 1.00113C15.5773 1.02626 16.7422 1.46863 17.6071 2.23633C18.472 3.00402 18.9704 4.038 18.9987 5.12339C19.027 6.20878 18.5831 7.26212 17.7591 8.06452L14.7074 10.7637C14.2676 11.1556 13.7449 11.4665 13.1694 11.6786C12.5939 11.8908 11.9769 12 11.3537 12C10.7305 12 10.1135 11.8908 9.53798 11.6786C8.96248 11.4665 8.43982 11.1556 8 10.7637" stroke="#A7542A" stroke-width="2" stroke-linecap="round" stroke-linejoin="round"/>
<path d="M10.1765 16.0034L8.23548 17.8986C7.41367 18.6299 6.33483 19.024 5.22318 18.9989C4.11152 18.9737 3.05252 18.5314 2.26625 17.7637C1.47998 16.996 1.0269 15.962 1.00116 14.8766C0.975423 13.7912 1.37901 12.7379 2.12805 11.9355L4.90237 9.23628C5.30221 8.84443 5.77735 8.53351 6.30054 8.32136C6.82373 8.10921 7.38467 8 7.95119 8C8.5177 8 9.07864 8.10921 9.60183 8.32136C10.125 8.53351 10.6002 8.84443 11 9.23628" stroke="#A7542A" stroke-width="2" stroke-linecap="round" stroke-linejoin="round"/>
</svg>