<svg xmlns="http://www.w3.org/2000/svg" width="20" height="20" viewBox="0 0 20 20" fill="none">
<path d="M9.50229 1.18713C9.56014 0.584135 10.4399 0.584137 10.4977 1.18713L10.6516 2.79114C10.7009 3.30515 11.4022 3.41621 11.6079 2.9426L12.25 1.46466C12.4913 0.909061 13.328 1.18091 13.1967 1.77227L12.8474 3.34533C12.7355 3.84942 13.3681 4.17174 13.7101 3.78489L14.7774 2.57769C15.1787 2.12387 15.8904 2.64095 15.5827 3.16279L14.7644 4.55092C14.5022 4.99575 15.0042 5.49779 15.4491 5.23556L16.8372 4.41727C17.359 4.10964 17.8761 4.82135 17.4223 5.22258L16.2151 6.28991C15.8283 6.63194 16.1506 7.26454 16.6547 7.15261L18.2277 6.80332C18.8191 6.67201 19.0909 7.50867 18.5353 7.75003L17.0574 8.39207C16.5838 8.59781 16.6949 9.29906 17.2089 9.34838L18.8129 9.50229C19.4159 9.56014 19.4159 10.4399 18.8129 10.4977L17.2089 10.6516C16.6949 10.7009 16.5838 11.4022 17.0574 11.6079L18.5353 12.25C19.0909 12.4913 18.8191 13.328 18.2277 13.1967L16.6547 12.8474C16.1506 12.7355 15.8283 13.3681 16.2151 13.7101L17.4223 14.7774C17.8761 15.1787 17.3591 15.8904 16.8372 15.5827L15.4491 14.7644C15.0042 14.5022 14.5022 15.0042 14.7644 15.4491L15.5827 16.8372C15.8904 17.359 15.1787 17.8761 14.7774 17.4223L13.7101 16.2151C13.3681 15.8283 12.7355 16.1506 12.8474 16.6547L13.1967 18.2277C13.328 18.8191 12.4913 19.0909 12.25 18.5353L11.6079 17.0574C11.4022 16.5838 10.7009 16.6949 10.6516 17.2089L10.4977 18.8129C10.4399 19.4159 9.56014 19.4159 9.50229 18.8129L9.34838 17.2089C9.29906 16.6949 8.59781 16.5838 8.39207 17.0574L7.75003 18.5353C7.50867 19.0909 6.67201 18.8191 6.80332 18.2277L7.15261 16.6547C7.26454 16.1506 6.63194 15.8283 6.28991 16.2151L5.22259 17.4223C4.82135 17.8761 4.10964 17.3591 4.41727 16.8372L5.23556 15.4491C5.49779 15.0042 4.99575 14.5022 4.55092 14.7644L3.16279 15.5827C2.64095 15.8904 2.12387 15.1787 2.57769 14.7774L3.78489 13.7101C4.17174 13.3681 3.84942 12.7355 3.34533 12.8474L1.77226 13.1967C1.18091 13.328 0.909063 12.4913 1.46466 12.25L2.9426 11.6079C3.41621 11.4022 3.30514 10.7009 2.79114 10.6516L1.18713 10.4977C0.584135 10.4399 0.584137 9.56014 1.18713 9.50229L2.79114 9.34838C3.30515 9.29906 3.41621 8.59781 2.9426 8.39207L1.46466 7.75003C0.909061 7.50867 1.18091 6.67201 1.77227 6.80332L3.34533 7.15261C3.84942 7.26454 4.17174 6.63194 3.78489 6.28991L2.57769 5.22258C2.12386 4.82134 2.64095 4.10964 3.16279 4.41727L4.55092 5.23556C4.99575 5.49779 5.49779 4.99575 5.23556 4.55092L4.41727 3.16279C4.10965 2.64095 4.82135 2.12387 5.22258 2.57769L6.28991 3.7849C6.63194 4.17175 7.26454 3.84942 7.15261 3.34533L6.80332 1.77226C6.67201 1.18091 7.50867 0.909063 7.75003 1.46466L8.39207 2.9426C8.59781 3.41621 9.29906 3.30514 9.34838 2.79114L9.50229 1.18713Z" fill="#A7542A"/>
</svg>